<svg xmlns="http://www.w3.org/2000/svg" width="920" height="360" viewBox="0 0 920 360" role="img" aria-labelledby="title desc">
  <title id="title">Judge comparison metrics</title>
  <desc id="desc">Bar chart comparing Armour monitor and generic proxy on accuracy, recall, and F1.</desc>
  <rect width="920" height="360" fill="#ffffff"/>
  <text x="40" y="46" fill="#111827" font-family="Inter, Arial, sans-serif" font-size="24" font-weight="700">Trace-Level Judge Comparison</text>
  <text x="40" y="76" fill="#4b5563" font-family="Inter, Arial, sans-serif" font-size="14">Claim-target set: 20 records. Armour uses reviewer-calibrated trace replay; generic proxy uses an offline LLM-judge-style rubric.</text>
  <line x1="110" y1="290" x2="850" y2="290" stroke="#d1d5db" stroke-width="1"/>
  <line x1="110" y1="110" x2="110" y2="290" stroke="#d1d5db" stroke-width="1"/>
  <text x="78" y="294" fill="#6b7280" font-family="Inter, Arial, sans-serif" font-size="12">0.0</text>
  <text x="78" y="204" fill="#6b7280" font-family="Inter, Arial, sans-serif" font-size="12">0.5</text>
  <text x="78" y="114" fill="#6b7280" font-family="Inter, Arial, sans-serif" font-size="12">1.0</text>
  <line x1="110" y1="200" x2="850" y2="200" stroke="#eef2f7" stroke-width="1"/>
  <line x1="110" y1="110" x2="850" y2="110" stroke="#eef2f7" stroke-width="1"/>
  <rect x="165" y="110" width="42" height="180" rx="3" fill="#0f766e"/>
  <rect x="214" y="155" width="42" height="135" rx="3" fill="#64748b"/>
  <rect x="385" y="110" width="42" height="180" rx="3" fill="#0f766e"/>
  <rect x="434" y="200" width="42" height="90" rx="3" fill="#64748b"/>
  <rect x="605" y="110" width="42" height="180" rx="3" fill="#0f766e"/>
  <rect x="654" y="170" width="42" height="120" rx="3" fill="#64748b"/>
  <text x="156" y="315" fill="#111827" font-family="Inter, Arial, sans-serif" font-size="14">Accuracy</text>
  <text x="390" y="315" fill="#111827" font-family="Inter, Arial, sans-serif" font-size="14">Recall</text>
  <text x="636" y="315" fill="#111827" font-family="Inter, Arial, sans-serif" font-size="14">F1</text>
  <text x="168" y="102" fill="#0f766e" font-family="Inter, Arial, sans-serif" font-size="12" font-weight="700">1.00</text>
  <text x="216" y="147" fill="#475569" font-family="Inter, Arial, sans-serif" font-size="12" font-weight="700">0.75</text>
  <text x="388" y="102" fill="#0f766e" font-family="Inter, Arial, sans-serif" font-size="12" font-weight="700">1.00</text>
  <text x="438" y="192" fill="#475569" font-family="Inter, Arial, sans-serif" font-size="12" font-weight="700">0.50</text>
  <text x="608" y="102" fill="#0f766e" font-family="Inter, Arial, sans-serif" font-size="12" font-weight="700">1.00</text>
  <text x="657" y="162" fill="#475569" font-family="Inter, Arial, sans-serif" font-size="12" font-weight="700">0.67</text>
  <rect x="704" y="36" width="14" height="14" rx="2" fill="#0f766e"/>
  <text x="724" y="48" fill="#111827" font-family="Inter, Arial, sans-serif" font-size="13">Armour monitor</text>
  <rect x="704" y="60" width="14" height="14" rx="2" fill="#64748b"/>
  <text x="724" y="72" fill="#111827" font-family="Inter, Arial, sans-serif" font-size="13">Generic proxy</text>
</svg>
